<svg xmlns="http://www.w3.org/2000/svg" width="807" height="243" fill="none" viewBox="0 0 807 243">
  <path fill="#000" d="m70.696 122 1.094-6.388 31.346-35.647h-25.53l1.492-8.874h38.977l-1.069 6.388-31.37 35.647h25.529L109.673 122H70.696Zm87.133-50.91h10.764l-5.469 33.062c-.613 3.712-2.03 6.96-4.251 9.744-2.22 2.784-5.046 4.955-8.476 6.513-3.431 1.541-7.259 2.312-11.485 2.312-4.225 0-7.788-.771-10.688-2.312-2.901-1.558-4.997-3.729-6.29-6.513-1.292-2.784-1.632-6.032-1.019-9.744l5.469-33.061h10.764l-5.345 32.141c-.298 1.939-.149 3.663.448 5.171.613 1.508 1.624 2.693 3.032 3.554 1.409.862 3.149 1.293 5.22 1.293 2.088 0 3.978-.431 5.668-1.293 1.707-.861 3.107-2.046 4.201-3.554 1.11-1.508 1.815-3.232 2.113-5.171l5.344-32.141ZM168.997 122l8.452-50.91h20.383c3.745 0 6.778.556 9.098 1.666 2.337 1.11 3.969 2.652 4.897 4.624.928 1.956 1.177 4.21.746 6.761-.348 1.989-1.053 3.729-2.113 5.22a13.242 13.242 0 0 1-3.878 3.68 15.858 15.858 0 0 1-5.021 2.038l-.1.497c1.923.083 3.654.63 5.196 1.64 1.541.995 2.693 2.404 3.455 4.226.762 1.823.936 3.986.522 6.488-.448 2.702-1.516 5.113-3.207 7.234-1.69 2.105-3.944 3.77-6.761 4.997-2.801 1.226-6.107 1.839-9.918 1.839h-21.751Zm12.255-8.8h8.775c2.983 0 5.261-.58 6.836-1.74 1.574-1.16 2.519-2.693 2.833-4.598.216-1.409.075-2.652-.422-3.729-.481-1.077-1.301-1.923-2.461-2.536-1.144-.613-2.594-.92-4.35-.92h-8.999l-2.212 13.523Zm3.455-20.806h7.979c1.459 0 2.809-.257 4.052-.77 1.26-.53 2.296-1.276 3.108-2.238.828-.977 1.35-2.13 1.566-3.455.298-1.856-.116-3.34-1.243-4.45-1.111-1.126-2.851-1.69-5.22-1.69h-8.154l-2.088 12.603ZM224.051 122h-11.534l26.026-50.91h13.871l9.098 50.91h-11.534l-6.19-39.276h-.398L224.051 122Zm2.635-20.011h27.244l-1.442 8.402h-27.244l1.442-8.402ZM276.414 122H264.88l26.026-50.91h13.871l9.098 50.91h-11.534l-6.19-39.276h-.397L276.414 122Zm2.635-20.011h27.245l-1.442 8.402h-27.245l1.442-8.402Zm91.987-30.898L362.584 122h-9.297l-16.779-32.042h-.397L330.766 122h-10.763l8.451-50.91h9.446l16.705 32.018h.423l5.294-32.017h10.714Zm28.953 21.254-1.367 8.401H375.38l1.367-8.401h23.242ZM404.29 122l8.451-50.91h34.304l-1.491 8.875h-23.541l-1.988 12.13H441.8l-1.491 8.875h-21.776l-1.988 12.156h23.64L438.693 122H404.29Zm71.373-29.656-1.367 8.402h-23.242l1.367-8.401h23.242ZM498.259 122h-18.295l8.451-50.91h17.948c5.12 0 9.371 1.045 12.752 3.133 3.397 2.088 5.792 5.08 7.184 8.974 1.392 3.878 1.64 8.51.746 13.895-.862 5.204-2.577 9.67-5.146 13.399-2.569 3.712-5.858 6.562-9.869 8.551-4.01 1.972-8.6 2.958-13.771 2.958Zm-5.991-9.222h6.613c3.198 0 5.999-.597 8.401-1.79 2.42-1.193 4.4-3.033 5.942-5.519 1.557-2.485 2.659-5.667 3.306-9.545.613-3.679.571-6.662-.125-8.949-.679-2.303-1.997-3.985-3.952-5.046-1.956-1.077-4.524-1.616-7.706-1.616h-7.085l-5.394 32.465ZM530.891 122l8.452-50.91h34.304l-1.491 8.875h-23.541l-1.989 12.13h21.776l-1.491 8.875h-21.776l-1.989 12.156h23.64L565.295 122h-34.404Zm51.637 0h-11.535l26.027-50.91h13.87l9.098 50.91h-11.534l-6.189-39.276h-.398L582.528 122Zm2.634-20.011h27.245l-1.442 8.402h-27.244l1.441-8.402ZM626.116 122l8.452-50.91h10.763l-6.96 42.036h21.825L658.705 122h-32.589Zm73.3-36.119c.083-2.071-.522-3.67-1.815-4.797-1.276-1.127-3.206-1.69-5.792-1.69-1.756 0-3.281.248-4.574.745-1.292.48-2.328 1.152-3.107 2.014a5.675 5.675 0 0 0-1.417 2.933c-.182.911-.124 1.707.174 2.386.315.68.804 1.268 1.467 1.765.679.48 1.483.903 2.411 1.268.928.348 1.914.646 2.958.895l4.375 1.094c2.138.497 4.06 1.16 5.767 1.988 1.724.829 3.166 1.848 4.326 3.058a10.118 10.118 0 0 1 2.485 4.275c.481 1.641.547 3.522.199 5.643-.53 3.116-1.765 5.817-3.704 8.104-1.939 2.27-4.482 4.035-7.631 5.295-3.149 1.242-6.795 1.864-10.938 1.864-4.109 0-7.581-.63-10.415-1.889-2.834-1.26-4.897-3.124-6.19-5.593-1.276-2.486-1.657-5.56-1.143-9.223h10.415c-.182 1.707.067 3.132.746 4.276.696 1.127 1.732 1.98 3.107 2.56 1.376.564 2.992.845 4.848.845 1.839 0 3.472-.265 4.897-.795 1.441-.53 2.61-1.268 3.505-2.212.895-.945 1.441-2.03 1.64-3.257.199-1.143.025-2.104-.522-2.883-.547-.779-1.425-1.442-2.635-1.989-1.193-.563-2.676-1.061-4.449-1.491l-5.32-1.392c-4.11-1.044-7.217-2.677-9.322-4.897-2.104-2.221-2.858-5.212-2.262-8.974.531-3.083 1.815-5.776 3.853-8.079 2.055-2.32 4.64-4.118 7.756-5.394 3.132-1.293 6.554-1.94 10.266-1.94 3.779 0 6.969.655 9.571 1.965 2.601 1.292 4.499 3.099 5.692 5.419 1.193 2.32 1.558 5.021 1.094 8.103h-10.316ZM254.378 169l4.829-29.091h4.39l-2.287 13.892h.355l14.488-13.892h5.526l-13.878 13.097L276.892 169h-5.284l-7.216-12.997-4.091 3.963-1.534 9.034h-4.389Zm32.613-12.955L284.861 169h-4.247l4.829-29.091h4.191l-1.79 10.824h.27a7.647 7.647 0 0 1 2.784-2.798c1.174-.692 2.613-1.037 4.318-1.037 1.496 0 2.751.307 3.764.923 1.023.616 1.743 1.534 2.159 2.756.426 1.212.493 2.727.199 4.545L299.009 169h-4.248l2.216-13.366c.265-1.601.057-2.841-.625-3.722-.682-.89-1.747-1.335-3.196-1.335a6.255 6.255 0 0 0-2.812.639c-.853.426-1.572 1.051-2.159 1.875-.587.814-.985 1.799-1.194 2.954Zm23.964 13.438c-1.383 0-2.59-.256-3.623-.767-1.032-.521-1.794-1.274-2.287-2.259-.492-.984-.62-2.192-.383-3.622.208-1.231.615-2.244 1.222-3.04a6.835 6.835 0 0 1 2.244-1.889 11.45 11.45 0 0 1 2.869-1.065 26.922 26.922 0 0 1 3.125-.526c1.326-.151 2.401-.279 3.225-.383.833-.104 1.458-.265 1.875-.483.416-.227.667-.597.752-1.108v-.1c.199-1.231.019-2.187-.539-2.869-.55-.691-1.506-1.037-2.87-1.037-1.42 0-2.613.313-3.579.938-.957.625-1.662 1.325-2.117 2.102l-3.807-.909c.682-1.326 1.549-2.396 2.6-3.21a10.402 10.402 0 0 1 3.48-1.79 13.338 13.338 0 0 1 3.864-.568c.871 0 1.775.104 2.713.312.937.199 1.79.568 2.557 1.108.776.54 1.354 1.312 1.733 2.316.378.994.435 2.286.17 3.877L321.778 169h-4.147l.511-2.983h-.17c-.36.549-.862 1.089-1.506 1.619-.635.531-1.411.971-2.33 1.321-.918.351-1.979.526-3.181.526Zm1.448-3.409c1.184 0 2.231-.232 3.14-.696.918-.464 1.662-1.07 2.23-1.818.568-.758.923-1.568 1.065-2.429l.469-2.813c-.18.152-.497.289-.952.412-.445.123-.947.232-1.506.327a35.6 35.6 0 0 1-1.647.241 38.62 38.62 0 0 0-1.321.185c-.834.104-1.615.279-2.344.526-.72.246-1.321.601-1.804 1.065-.483.454-.786 1.06-.909 1.818-.171 1.051.08 1.847.753 2.386.682.531 1.624.796 2.826.796ZM327.435 169l3.637-21.818h4.105l-.583 3.466h.228a6.59 6.59 0 0 1 2.571-2.77c1.127-.682 2.329-1.023 3.608-1.023.274 0 .587.01.937.029.351.009.635.033.852.071l-.681 4.062c-.161-.047-.455-.099-.881-.156a8.614 8.614 0 0 0-1.321-.1c-.994 0-1.918.213-2.77.64a6.007 6.007 0 0 0-2.145 1.747 5.668 5.668 0 0 0-1.122 2.528L331.683 169h-4.248Zm23.995.44c-2.14 0-3.911-.459-5.312-1.378-1.392-.928-2.368-2.23-2.926-3.906-.559-1.685-.649-3.66-.27-5.923.369-2.235 1.113-4.205 2.23-5.909 1.117-1.705 2.509-3.035 4.176-3.992 1.676-.956 3.528-1.434 5.554-1.434 1.231 0 2.391.203 3.48.611a6.84 6.84 0 0 1 2.799 1.917c.767.871 1.297 2.003 1.59 3.395.303 1.383.294 3.063-.028 5.043l-.241 1.505h-17.358l.497-3.181h13.182c.198-1.118.146-2.108-.157-2.969a4.018 4.018 0 0 0-1.562-2.06c-.729-.502-1.648-.753-2.756-.753a6.04 6.04 0 0 0-3.182.895 8.272 8.272 0 0 0-2.471 2.287c-.654.919-1.066 1.866-1.236 2.841l-.497 2.912c-.246 1.591-.204 2.869.128 3.835.341.966.937 1.667 1.789 2.102.853.436 1.918.654 3.196.654a7.38 7.38 0 0 0 2.287-.341 5.818 5.818 0 0 0 1.89-1.037 5.838 5.838 0 0 0 1.377-1.733l3.892.724a9.167 9.167 0 0 1-2.244 3.111c-.975.881-2.126 1.567-3.452 2.06-1.316.483-2.774.724-4.375.724Zm23.555 0c-2.14 0-3.911-.459-5.312-1.378-1.392-.928-2.368-2.23-2.927-3.906-.558-1.685-.648-3.66-.269-5.923.369-2.235 1.112-4.205 2.23-5.909 1.117-1.705 2.509-3.035 4.176-3.992 1.676-.956 3.527-1.434 5.554-1.434 1.231 0 2.391.203 3.48.611a6.836 6.836 0 0 1 2.798 1.917c.767.871 1.298 2.003 1.591 3.395.303 1.383.294 3.063-.028 5.043l-.242 1.505h-17.358l.497-3.181h13.182c.199-1.118.147-2.108-.156-2.969a4.014 4.014 0 0 0-1.563-2.06c-.729-.502-1.647-.753-2.755-.753a6.038 6.038 0 0 0-3.182.895 8.276 8.276 0 0 0-2.472 2.287c-.653.919-1.065 1.866-1.235 2.841l-.498 2.912c-.246 1.591-.203 2.869.128 3.835.341.966.938 1.667 1.79 2.102.852.436 1.918.654 3.196.654.824 0 1.586-.114 2.287-.341a5.813 5.813 0 0 0 1.889-1.037 5.841 5.841 0 0 0 1.378-1.733l3.892.724a9.18 9.18 0 0 1-2.244 3.111c-.976.881-2.126 1.567-3.452 2.06-1.316.483-2.775.724-4.375.724Zm22.347-.014c-1.77 0-3.271-.45-4.502-1.349-1.222-.909-2.089-2.202-2.6-3.878-.502-1.686-.559-3.708-.17-6.065.397-2.358 1.131-4.375 2.201-6.052 1.07-1.676 2.368-2.959 3.892-3.849a9.613 9.613 0 0 1 4.929-1.335c1.355 0 2.406.227 3.154.682.757.445 1.316.965 1.676 1.562.36.597.63 1.122.81 1.577h.241l1.804-10.81h4.247L408.185 169h-4.148l.582-3.395h-.355c-.331.464-.791.994-1.378 1.591-.577.597-1.316 1.117-2.216 1.563-.899.445-2.012.667-3.338.667Zm1.435-3.622c1.222 0 2.315-.322 3.281-.966.976-.653 1.785-1.558 2.429-2.713.654-1.155 1.108-2.5 1.364-4.034.256-1.515.251-2.841-.014-3.977-.265-1.137-.777-2.022-1.534-2.657-.758-.634-1.757-.951-2.998-.951-1.278 0-2.391.331-3.338.994-.947.663-1.723 1.567-2.329 2.713-.597 1.146-1.013 2.439-1.25 3.878-.246 1.458-.256 2.77-.029 3.935.228 1.164.706 2.088 1.435 2.769.729.673 1.724 1.009 2.983 1.009Zm21.758 3.679c-1.383 0-2.59-.256-3.622-.767-1.032-.521-1.795-1.274-2.287-2.259-.493-.984-.62-2.192-.384-3.622.209-1.231.616-2.244 1.222-3.04a6.835 6.835 0 0 1 2.244-1.889 11.45 11.45 0 0 1 2.869-1.065 26.958 26.958 0 0 1 3.125-.526c1.326-.151 2.401-.279 3.225-.383.833-.104 1.458-.265 1.875-.483.417-.227.668-.597.753-1.108v-.1c.199-1.231.019-2.187-.54-2.869-.549-.691-1.506-1.037-2.869-1.037-1.421 0-2.614.313-3.58.938-.956.625-1.662 1.325-2.116 2.102l-3.807-.909c.682-1.326 1.548-2.396 2.599-3.21a10.402 10.402 0 0 1 3.48-1.79 13.343 13.343 0 0 1 3.864-.568c.871 0 1.776.104 2.713.312.938.199 1.79.568 2.557 1.108.776.54 1.354 1.312 1.733 2.316.379.994.435 2.286.17 3.877l-2.4 14.489h-4.148l.511-2.983h-.17c-.36.549-.862 1.089-1.506 1.619-.634.531-1.411.971-2.329 1.321-.919.351-1.979.526-3.182.526Zm1.449-3.409c1.183 0 2.23-.232 3.139-.696.918-.464 1.662-1.07 2.23-1.818.568-.758.923-1.568 1.065-2.429l.469-2.813c-.18.152-.497.289-.952.412-.445.123-.947.232-1.505.327a35.64 35.64 0 0 1-1.648.241c-.53.067-.971.128-1.321.185-.833.104-1.615.279-2.344.526-.719.246-1.321.601-1.804 1.065-.483.454-.786 1.06-.909 1.818-.17 1.051.081 1.847.753 2.386.682.531 1.624.796 2.827.796ZM437.006 169l3.636-21.818h4.105l-.582 3.466h.227a6.59 6.59 0 0 1 2.571-2.77 6.853 6.853 0 0 1 3.608-1.023c.275 0 .587.01.938.029.35.009.634.033.852.071l-.682 4.062c-.161-.047-.455-.099-.881-.156a8.614 8.614 0 0 0-1.321-.1 6.1 6.1 0 0 0-2.77.64 6.007 6.007 0 0 0-2.145 1.747 5.679 5.679 0 0 0-1.122 2.528L441.253 169h-4.247Zm15.429 0 3.637-21.818h4.247L456.683 169h-4.248Zm6.648-25.227c-.739 0-1.364-.246-1.875-.739-.502-.502-.734-1.098-.696-1.79.038-.7.332-1.297.881-1.789a2.752 2.752 0 0 1 1.917-.753c.739 0 1.359.251 1.861.753.502.492.739 1.089.71 1.789-.037.692-.331 1.288-.88 1.79a2.749 2.749 0 0 1-1.918.739ZM473.323 169l4.83-29.091h4.389l-2.102 12.642h14.502l2.103-12.642h4.403L496.619 169h-4.404l2.102-12.685h-14.502L477.712 169h-4.389Zm38.637.44c-2.074 0-3.807-.473-5.199-1.42-1.392-.957-2.373-2.292-2.941-4.006-.558-1.723-.653-3.726-.284-6.008.36-2.235 1.085-4.186 2.174-5.853 1.098-1.666 2.471-2.959 4.119-3.877 1.657-.919 3.499-1.378 5.525-1.378 2.074 0 3.802.478 5.185 1.434 1.392.957 2.372 2.297 2.94 4.02.569 1.724.668 3.731.299 6.023-.36 2.216-1.094 4.157-2.202 5.824-1.098 1.657-2.472 2.945-4.119 3.863-1.648.919-3.48 1.378-5.497 1.378Zm.241-3.565c1.364 0 2.552-.36 3.565-1.08 1.023-.719 1.856-1.676 2.5-2.869a12.506 12.506 0 0 0 1.321-3.92c.218-1.373.213-2.628-.014-3.765-.218-1.145-.691-2.064-1.42-2.755-.729-.691-1.743-1.037-3.04-1.037-1.364 0-2.562.364-3.594 1.094-1.023.719-1.856 1.68-2.5 2.883a12.658 12.658 0 0 0-1.292 3.935c-.218 1.363-.218 2.618 0 3.764.217 1.136.691 2.045 1.42 2.727.729.682 1.747 1.023 3.054 1.023Zm28.391-18.693-.554 3.409h-11.917l.554-3.409h11.917Zm-7.869-5.227h4.247l-3.437 20.639c-.133.824-.109 1.444.071 1.861.18.407.454.686.824.838.378.142.8.213 1.264.213.341 0 .639-.024.895-.071l.61-.114.228 3.509a9.89 9.89 0 0 1-1.151.284c-.473.104-1.051.161-1.733.17-1.117.019-2.126-.18-3.025-.596-.9-.427-1.572-1.071-2.017-1.932-.445-.872-.554-1.965-.327-3.282l3.551-21.519Zm15.792 14.09L546.384 169h-4.247l4.83-29.091h4.19l-1.79 10.824h.27a7.647 7.647 0 0 1 2.784-2.798c1.174-.692 2.614-1.037 4.318-1.037 1.497 0 2.751.307 3.765.923 1.022.616 1.742 1.534 2.159 2.756.426 1.212.492 2.727.199 4.545L560.532 169h-4.247l2.216-13.366c.265-1.601.057-2.841-.625-3.722-.682-.89-1.747-1.335-3.196-1.335a6.26 6.26 0 0 0-2.813.639c-.852.426-1.572 1.051-2.159 1.875-.587.814-.985 1.799-1.193 2.954Zm26.96 13.395c-2.074 0-3.807-.473-5.199-1.42-1.392-.957-2.372-2.292-2.94-4.006-.559-1.723-.653-3.726-.284-6.008.36-2.235 1.084-4.186 2.173-5.853 1.099-1.666 2.472-2.959 4.119-3.877 1.658-.919 3.5-1.378 5.526-1.378 2.074 0 3.802.478 5.185 1.434 1.392.957 2.372 2.297 2.94 4.02.568 1.724.668 3.731.298 6.023-.36 2.216-1.093 4.157-2.201 5.824-1.099 1.657-2.472 2.945-4.12 3.863-1.647.919-3.48 1.378-5.497 1.378Zm.242-3.565c1.363 0 2.552-.36 3.565-1.08 1.023-.719 1.856-1.676 2.5-2.869a12.532 12.532 0 0 0 1.321-3.92c.218-1.373.213-2.628-.014-3.765-.218-1.145-.692-2.064-1.421-2.755-.729-.691-1.742-1.037-3.039-1.037-1.364 0-2.562.364-3.594 1.094-1.023.719-1.856 1.68-2.5 2.883a12.633 12.633 0 0 0-1.293 3.935c-.218 1.363-.218 2.618 0 3.764.218 1.136.691 2.045 1.421 2.727.729.682 1.747 1.023 3.054 1.023Zm20.962-9.83L594.548 169h-4.247l3.637-21.818h4.076l-.596 3.551h.27a7.732 7.732 0 0 1 2.826-2.784c1.203-.701 2.623-1.051 4.262-1.051 1.477 0 2.717.312 3.721.937 1.013.616 1.728 1.534 2.145 2.756.426 1.221.492 2.732.199 4.531L608.511 169h-4.247l2.23-13.366c.256-1.582.048-2.818-.625-3.708-.663-.899-1.718-1.349-3.167-1.349-.985 0-1.899.213-2.742.639-.833.426-1.539 1.051-2.116 1.875-.568.814-.957 1.799-1.165 2.954Zm26.751 21.137 5.028-30h4.148l-.583 3.537h.356c.322-.455.757-.98 1.306-1.577.559-.597 1.293-1.117 2.202-1.562.909-.455 2.041-.682 3.395-.682 1.761 0 3.253.445 4.474 1.335 1.222.89 2.093 2.173 2.614 3.849.521 1.677.587 3.694.199 6.052-.388 2.357-1.118 4.379-2.188 6.065-1.07 1.676-2.367 2.969-3.892 3.878a9.488 9.488 0 0 1-4.929 1.349c-1.325 0-2.372-.222-3.139-.667-.757-.446-1.321-.966-1.69-1.563a11.02 11.02 0 0 1-.838-1.591h-.256l-1.932 11.577h-4.275Zm7.372-19.091c-.246 1.534-.246 2.879 0 4.034.246 1.155.738 2.06 1.477 2.713.748.644 1.733.966 2.955.966 1.269 0 2.381-.336 3.338-1.009.956-.681 1.747-1.605 2.372-2.769.634-1.165 1.075-2.477 1.321-3.935.237-1.439.232-2.732-.014-3.878-.237-1.146-.725-2.05-1.463-2.713-.739-.663-1.748-.994-3.026-.994-1.24 0-2.339.317-3.295.951-.947.635-1.733 1.52-2.358 2.657-.625 1.136-1.061 2.462-1.307 3.977Zm24.996 11.392c-1.382 0-2.59-.256-3.622-.767-1.032-.521-1.794-1.274-2.287-2.259-.492-.984-.62-2.192-.383-3.622.208-1.231.615-2.244 1.221-3.04a6.849 6.849 0 0 1 2.245-1.889c.88-.473 1.837-.828 2.869-1.065a26.922 26.922 0 0 1 3.125-.526c1.326-.151 2.4-.279 3.224-.383.834-.104 1.459-.265 1.875-.483.417-.227.668-.597.753-1.108v-.1c.199-1.231.019-2.187-.54-2.869-.549-.691-1.505-1.037-2.869-1.037-1.42 0-2.614.313-3.579.938-.957.625-1.662 1.325-2.117 2.102l-3.807-.909c.682-1.326 1.549-2.396 2.6-3.21a10.383 10.383 0 0 1 3.48-1.79 13.331 13.331 0 0 1 3.863-.568c.872 0 1.776.104 2.713.312.938.199 1.79.568 2.557 1.108.777.54 1.354 1.312 1.733 2.316.379.994.436 2.286.171 3.877L666.622 169h-4.148l.512-2.983h-.171c-.36.549-.861 1.089-1.505 1.619-.635.531-1.411.971-2.33 1.321-.918.351-1.979.526-3.182.526Zm1.449-3.409c1.184 0 2.23-.232 3.139-.696.919-.464 1.662-1.07 2.23-1.818.569-.758.924-1.568 1.066-2.429l.469-2.813c-.18.152-.498.289-.952.412-.445.123-.947.232-1.506.327a35.64 35.64 0 0 1-1.648.241c-.53.067-.97.128-1.321.185-.833.104-1.614.279-2.343.526-.72.246-1.321.601-1.804 1.065-.483.454-.786 1.06-.909 1.818-.171 1.051.08 1.847.752 2.386.682.531 1.625.796 2.827.796ZM672.279 169l3.636-21.818h4.106l-.583 3.466h.227a6.598 6.598 0 0 1 2.572-2.77 6.847 6.847 0 0 1 3.607-1.023c.275 0 .588.01.938.029.35.009.634.033.852.071l-.682 4.062a6.965 6.965 0 0 0-.88-.156 8.624 8.624 0 0 0-1.321-.1c-.995 0-1.918.213-2.77.64a6.007 6.007 0 0 0-2.145 1.747 5.657 5.657 0 0 0-1.122 2.528L676.526 169h-4.247Zm25.614-29.091-3.806 20.725h-3.921l3.054-20.725h4.673Zm-6.804 29.361c-.795 0-1.458-.275-1.988-.824-.521-.549-.777-1.222-.767-2.017a2.616 2.616 0 0 1 .88-1.974c.588-.54 1.269-.81 2.046-.81.776 0 1.439.275 1.989.824.549.549.805 1.202.767 1.96a2.974 2.974 0 0 1-.455 1.449 3.02 3.02 0 0 1-1.051 1.023 2.841 2.841 0 0 1-1.421.369Z"/>
  <path fill="#000" fill-opacity=".1" d="M42 41h723v-2H42v2Zm724 1v159h2V42h-2Zm-1 160H42v2h723v-2Zm-724-1V42h-2v159h2Zm1 1a1 1 0 0 1-1-1h-2a3 3 0 0 0 3 3v-2Zm724-1a1 1 0 0 1-1 1v2a3 3 0 0 0 3-3h-2Zm-1-160a1 1 0 0 1 1 1h2a3 3 0 0 0-3-3v2ZM42 39a3 3 0 0 0-3 3h2a1 1 0 0 1 1-1v-2Z"/>
</svg>
